# xmcd
#
# Track frame offsets:
#	150
#	11751
#	20650
#	32114
#	43514
#	54911
#	68295
#	80896
#	95660
#	106049
#	117761
#	130830
#	143430
#	155667
#	168270
#	180246
#	189525
#	201772
#	212648
#	223592
#	234926
#	244503
#	256942
#	267484
#	280552
#	291143
#
# Disc length: 3997 seconds
#
# Revision: 1
# Processed by: cddbd v1.5.2PL0 Copyright (c) Steve Scherf et al.
# Submitted via: audiograbber 1.83.01
#
DISCID=610f9b1a
DTITLE=The Osborne Brothers - The Osborne Brothers 1956-1968 CD4
DYEAR=1995
DGENRE=Bluegrass
TTITLE0=Lonesome Feelin'
TTITLE1=World Of Unwanted
TTITLE2=Hard Times
TTITLE3=I'm Leavin'
TTITLE4=The Kind Of Woman I Got
TTITLE5=One Kiss Away From Loneliness
TTITLE6=Let's Say Goodbye Like We Said Hello
TTITLE7=Someone Before Me
TTITLE8=Walking The Floor Over You
TTITLE9=Roll Muddy River
TTITLE10=My Favorite Memory
TTITLE11=Gal You Got A Job To Do
TTITLE12=Ruby Are You Mad
TTITLE13=My Favorite Memory
TTITLE14=Rocky Top
TTITLE15=When You Wind Down
TTITLE16=Foggy Montain Breakdwon
TTITLE17=Foggy Mountain Breakdown (Reprise)
TTITLE18=The Sisters (Billie Jean and Bonnie)
TTITLE19=A-Model
TTITLE20=Lonesome Road Blues
TTITLE21=Jessie James
TTITLE22=Maiden's Prayer
TTITLE23=John Hardy
TTITLE24=Little Willie
TTITLE25=Hand Me Down My Walkin' Cane
EXTD=
EXTT0=
EXTT1=
EXTT2=
EXTT3=
EXTT4=
EXTT5=
EXTT6=
EXTT7=
EXTT8=
EXTT9=
EXTT10=
EXTT11=
EXTT12=
EXTT13=
EXTT14=
EXTT15=
EXTT16=
EXTT17=
EXTT18=
EXTT19=
EXTT20=
EXTT21=
EXTT22=
EXTT23=
EXTT24=
EXTT25=
PLAYORDER=
